<?xml version="1.0" standalone="no"?>
<!DOCTYPE svg PUBLIC "-//W3C//DTD SVG 20010904//EN"
 "http://www.w3.org/TR/2001/REC-SVG-20010904/DTD/svg10.dtd">
<svg version="1.0" xmlns="http://www.w3.org/2000/svg"
 width="512.000000pt" height="512.000000pt" viewBox="0 0 512.000000 512.000000"
 preserveAspectRatio="xMidYMid meet">
<metadata>
Created by potrace 1.14, written by Peter Selinger 2001-2017
</metadata>
<g transform="translate(0.000000,512.000000) scale(0.100000,-0.100000)"
fill="#000000" stroke="none">
<path d="M3989 5100 c-70 -37 -74 -51 -77 -275 -5 -293 17 -375 133 -490 83
-84 201 -135 311 -135 34 0 87 -21 110 -44 22 -23 44 -75 44 -108 0 -31 -26
-85 -53 -113 -18 -17 -76 -35 -116 -35 -48 0 -135 -24 -191 -52 -62 -31 -160
-132 -191 -198 -43 -88 -49 -142 -49 -418 l0 -257 -52 -25 c-68 -32 -169 -133
-199 -199 l-24 -51 -1758 0 c-1706 0 -1759 -1 -1795 -19 -22 -11 -46 -35 -60
-59 l-22 -40 0 -1226 c0 -1354 -4 -1277 63 -1327 l32 -24 2453 -3 c2415 -2
2453 -2 2491 17 21 11 47 32 57 48 18 27 19 68 22 1258 1 677 0 1244 -3 1260
-6 37 -39 77 -82 99 -27 14 -70 16 -290 16 l-258 0 -25 53 c-31 66 -129 164
-198 197 l-52 25 0 252 c0 138 4 262 9 275 24 61 78 93 171 101 125 10 226 60
304 149 152 174 153 423 2 595 -79 90 -171 134 -315 152 -90 12 -124 30 -153
84 -14 27 -17 63 -18 225 0 159 -3 199 -16 225 -42 81 -127 109 -205 67z m128
-2415 c59 -25 86 -67 98 -155 6 -51 34 -89 82 -114 27 -14 69 -16 278 -16
l245 0 0 -1050 0 -1050 -2260 0 -2260 0 0 1050 0 1050 1746 0 1746 0 39 22
c50 28 68 56 76 115 16 128 106 191 210 148z"/>
<path d="M691 2081 c-42 -22 -81 -85 -81 -130 0 -107 121 -181 217 -132 50 25
73 59 79 119 7 62 -19 109 -76 139 -51 27 -93 29 -139 4z"/>
<path d="M1293 2083 c-108 -61 -108 -215 0 -264 23 -10 53 -19 67 -19 14 0 44
9 67 19 47 22 83 79 83 132 0 38 -35 104 -67 125 -37 24 -112 27 -150 7z"/>
<path d="M1891 2081 c-41 -22 -81 -85 -81 -129 0 -70 57 -137 125 -148 118
-17 212 106 159 209 -42 80 -127 109 -203 68z"/>
<path d="M2493 2082 c-71 -39 -102 -126 -68 -192 23 -44 37 -58 79 -75 48 -20
79 -19 126 5 109 56 101 219 -12 265 -49 19 -85 19 -125 -3z"/>
<path d="M3091 2082 c-42 -23 -81 -86 -81 -130 0 -33 22 -85 46 -109 20 -20
80 -43 111 -43 15 1 42 9 60 18 75 41 103 129 62 201 -29 52 -58 71 -117 77
-34 3 -56 -1 -81 -14z"/>
<path d="M3720 2093 c-61 -20 -110 -83 -110 -142 0 -53 36 -110 83 -132 56
-25 92 -24 142 5 101 60 97 201 -8 258 -31 17 -76 22 -107 11z"/>
<path d="M4279 2071 c-37 -23 -48 -37 -58 -74 -22 -76 5 -143 72 -179 87 -47
198 11 213 111 13 88 -60 170 -152 171 -16 0 -50 -13 -75 -29z"/>
<path d="M995 1483 c-103 -55 -113 -178 -22 -254 34 -28 101 -35 147 -14 115
52 119 210 6 264 -50 25 -90 26 -131 4z"/>
<path d="M1590 1482 c-40 -22 -80 -90 -80 -135 0 -48 43 -111 89 -132 126 -57
258 81 193 202 -40 74 -132 104 -202 65z"/>
<path d="M2213 1493 c-27 -5 -81 -56 -93 -89 -23 -59 -1 -130 53 -175 62 -51
169 -28 213 46 30 52 31 96 2 147 -35 61 -96 86 -175 71z"/>
<path d="M2795 1484 c-40 -20 -59 -42 -73 -83 -17 -49 -15 -78 10 -122 27 -49
55 -68 111 -75 85 -12 167 60 167 147 0 104 -124 181 -215 133z"/>
<path d="M3393 1482 c-79 -43 -104 -129 -59 -206 62 -105 216 -96 261 16 19
49 19 81 -1 121 -42 80 -126 109 -201 69z"/>
<path d="M3995 1483 c-82 -44 -107 -126 -63 -205 40 -70 69 -78 280 -78 201 1
224 6 270 65 18 23 23 42 23 85 0 63 -24 103 -78 132 -46 25 -387 25 -432 1z"/>
<path d="M715 893 c-50 -10 -105 -86 -105 -144 0 -70 76 -149 143 -149 33 0
88 20 108 39 26 25 49 77 49 112 0 18 -11 51 -25 74 -35 61 -92 84 -170 68z"/>
<path d="M1291 882 c-42 -23 -81 -86 -81 -131 0 -72 75 -151 143 -151 85 0
157 70 157 152 0 37 -36 103 -67 124 -38 24 -112 27 -152 6z"/>
<path d="M1748 882 c-113 -52 -116 -212 -5 -263 40 -18 77 -19 820 -19 751 0
779 1 816 19 44 23 67 54 76 104 13 69 -16 127 -82 161 -29 14 -107 16 -810
16 -715 -1 -781 -2 -815 -18z"/>
<path d="M3713 893 c-28 -5 -81 -57 -94 -90 -25 -66 9 -152 73 -184 129 -66
265 71 199 199 -33 64 -97 91 -178 75z"/>
<path d="M4286 876 c-87 -52 -100 -167 -27 -237 65 -62 180 -44 227 36 48 83
19 173 -69 210 -51 21 -86 19 -131 -9z"/>
</g>
</svg>
